<svg width="16" height="18" viewBox="0 0 16 18" fill="none" xmlns="http://www.w3.org/2000/svg">
<path d="M8.52174 16.7932L8.52173 16.7932L8.51076 16.7981C8.39049 16.8526 8.34895 16.8706 8.3112 16.8838C8.28714 16.8923 8.25294 16.9028 8.17436 16.9165C8.17312 16.9166 8.15917 16.9183 8.12988 16.92C8.0936 16.9221 8.04863 16.9234 8.0005 16.9234C7.95238 16.9234 7.9074 16.9221 7.87112 16.92C7.8418 16.9183 7.82785 16.9166 7.82663 16.9165C7.74732 16.9027 7.71242 16.892 7.68759 16.8833C7.64931 16.8699 7.60684 16.8515 7.48631 16.797C5.48121 15.8894 1 13.1973 1 7.24164V3.27679C1 2.70025 1.00078 2.32785 1.02393 2.0444C1.04613 1.77255 1.08383 1.67177 1.10899 1.62239C1.20487 1.43422 1.35763 1.28147 1.54579 1.18559C1.59517 1.16043 1.69595 1.12273 1.9678 1.10053C2.25126 1.07738 2.62365 1.0766 3.2002 1.0766H12.8002C13.3768 1.0766 13.7488 1.07738 14.0319 1.10052C14.3032 1.1227 14.4038 1.16034 14.4534 1.18559C14.6426 1.28202 14.7959 1.4353 14.8912 1.62239C14.9163 1.6716 14.9539 1.77214 14.9761 2.04346C14.9992 2.3264 15 2.69806 15 3.27351V7.24165C15 13.189 10.5309 15.8819 8.52174 16.7932Z" stroke="white" stroke-width="2" stroke-linecap="round" stroke-linejoin="round"/>
</svg>
