<svg width="0" height="0" class="hidden">  
 
  <symbol fill="none" xmlns="http://www.w3.org/2000/svg" viewBox="0 0 13 22" id="arrowPrev">
    <path d="M0.539673 9.76448C-0.193202 10.4503 -0.177699 11.5766 0.574301 12.2803L10.0433 21.1408C10.7953 21.8444 11.9409 22.3639 12.6738 21.6782C13.4067 20.9924 12.7587 20.0103 12.0067 19.3066L3.33521 11.0062L12.0067 2.70577C12.7396 2.02 13.4258 1.0379 12.6738 0.33423C11.9218 -0.369441 10.8108 0.15344 10.0779 0.839216L0.539673 9.76448Z" fill="white"></path>
  </symbol>
 
 // Footer

  <symbol xmlns="http://www.w3.org/2000/svg" viewBox="0 0 32 32" id="futures">
    <path d="M9.708 1.198h-9.708l11.146 14.802-11.146 14.802h9.708l11.146-14.802zM32 1.198h-9.708l-3.063 4.083 4.849 6.427zM19.229 26.734l3.063 4.068h9.708l-7.922-10.51z"  ></path>
  </symbol>

  <symbol  xmlns="http://www.w3.org/2000/svg" viewBox="0 0 800 800" id="position">
    <g clip-path="url(#clip0_1319_28)">
      <path d="M756.674 400.178C756.674 307.795 681.507 232.828 589.113 232.828C498.583 232.828 425.2 303.542 421.736 393.956L421.747 394.275C421.747 394.032 421.814 394.032 421.709 407.817C419.837 462.617 397.089 513.831 357.658 552.033C318.126 590.335 266.031 611.426 210.972 611.426C191.372 611.426 172.108 608.708 153.629 603.496C153.681 603.534 153.732 603.567 153.786 603.604C129.915 596.917 107.359 586.042 87.1328 571.363C104.376 602.807 126.475 631.769 152.978 657.253C219.72 721.426 307.486 756.767 400.107 756.767C596.073 756.767 755.877 597.333 756.701 401.451C756.688 401.111 756.677 400.332 756.674 400.178ZM589.016 454.157C559.22 454.157 534.978 429.915 534.978 400.119C534.978 370.322 559.22 346.081 589.016 346.081C618.813 346.081 643.054 370.322 643.054 400.119C643.054 429.915 618.815 454.157 589.016 454.157Z" ></path>
      <path d="M156.713 400.119C156.713 429.916 180.954 454.157 210.751 454.157C240.547 454.157 264.789 429.916 264.789 400.119C264.789 370.322 240.547 346.081 210.751 346.081C180.954 346.081 156.713 370.322 156.713 400.119Z" ></path>
      <path d="M799.905 399.762C799.905 399.508 799.892 399.257 799.892 399.006C799.289 179.022 620.202 0 400.148 0C296.001 0 197.398 39.5882 122.504 111.907C47.8151 184.029 4.5388 281.235 0.648063 383.907H0.696698C0.272499 389.311 0.0644531 395.223 0.0644531 400.035C0.0644531 404.626 0.580516 416.425 0.610237 417.108C4.93328 520.321 48.4014 616.673 123.02 688.417C197.857 760.374 296.263 800 400.113 800C620.131 800 799.492 620.986 799.94 400.905C799.938 400.548 799.927 400.157 799.905 399.762ZM400.11 756.77C307.489 756.77 219.723 721.429 152.981 657.256C126.476 631.772 104.379 602.81 87.1359 571.365C107.362 586.045 129.918 596.92 153.789 603.607C153.735 603.569 153.686 603.537 153.632 603.499C172.111 608.711 191.375 611.429 210.975 611.429C266.034 611.429 318.129 590.335 357.661 552.036C397.092 513.834 419.84 462.619 421.712 407.819C421.817 394.037 421.75 394.037 421.75 394.277L421.739 393.959C425.203 303.545 498.138 232.831 588.668 232.831C681.059 232.831 755.778 307.798 755.778 400.184C755.778 400.189 755.778 400.178 755.778 400.178C755.778 400.335 756.24 401.113 756.256 401.456C755.429 597.336 596.076 756.77 400.11 756.77ZM264.788 400.119C264.788 429.915 240.547 454.157 210.75 454.157C180.954 454.157 156.712 429.915 156.712 400.119C156.712 370.322 180.954 346.081 210.75 346.081C240.55 346.081 264.788 370.322 264.788 400.119Z" fill="#000000"></path>
      <path d="M589.017 346.081C559.22 346.081 534.979 370.322 534.979 400.119C534.979 429.916 559.22 454.157 589.017 454.157C618.813 454.157 643.054 429.916 643.054 400.119C643.054 370.322 618.816 346.081 589.017 346.081Z" fill="#000000"></path>
    </g>    
  </symbol>

  <symbol  xmlns="http://www.w3.org/2000/svg" viewBox="0 0 32 32" id="crypto500">
    <path d="M14.156 15.297l6.25 4.927-4.141-10.214zM16 0c-8.839 0-16 7.161-16 16s7.161 16 16 16c8.839 0 16-7.161 16-16s-7.161-16-16-16zM23.729 23.073c-0.016 0.63-0.536 1.125-1.167 1.109-0.313 0-0.552-0.12-0.885-0.391l-8.255-6.667-2.771 6.938h-2.396l6.995-16.807c0.167-0.422 0.568-0.693 1.021-0.677 0.432-0.016 0.839 0.25 0.99 0.677l6.365 15.323c0.057 0.151 0.104 0.313 0.104 0.464 0 0.010 0 0.010 0 0.031z"></path>
  </symbol>

  <symbol  role="img" focusable="false" aria-hidden="true" xmlns="http://www.w3.org/2000/svg" viewBox="0 0 14 14" id="usdt">
    <path d="m 7.2081647,9.154695 0.8289682,-1.20996 -0.5320795,1.46335 1.6494991,0.23967 -1.6494991,0.23941 0.6386008,1.25057 c 0,0 -0.7968008,-0.83767 -0.9093865,-0.95579 0.046405,1.8135 0.057743,2.25962 0.057743,2.25962 0,0 4.0710143,-1.88917 1.8092811,-6.0667 0,0 2.8204432,-3.11312 0.2660397,-5.02892 0,0 4.3636845,2.63429 1.5965025,7.1575 0,0 2.288099,-2.23511 1.090789,-4.49657 0,0 2.075321,2.92696 -0.452452,6.14633 0,0 0.691861,-0.42582 1.303832,-2.04895 0,0 -0.446388,4.83195 -5.852347,4.89523 l 0,5.3e-4 -0.107576,0 0,-5.3e-4 c -5.4056952,-0.06328 -5.852083,-4.89523 -5.852083,-4.89523 0.6119705,1.62313 1.3035683,2.04895 1.3035683,2.04895 -2.5277729,-3.21963 -0.4521884,-6.14633 -0.4521884,-6.14633 -1.19731064,2.26173 1.0910529,4.49657 1.0910529,4.49657 -2.76718232,-4.52347 1.5962383,-7.1575 1.5962383,-7.1575 -2.5544032,1.9158 0.2660397,5.02892 0.2660397,5.02892 -2.2617331,4.17753 1.8092811,6.0667 1.8092811,6.0667 0,0 0.011338,-0.44638 0.057743,-2.25962 L 5.8566091,11.137735 6.4952099,9.887165 4.8457108,9.647755 6.4952099,9.408085 5.9631304,7.944735 6.7920986,9.154695 C 6.8514236,6.838385 6.998286,1.091245 6.999077,1.064085 l 2.636e-4,-0.0641 5.274e-4,0.0264 7.91e-4,-0.0264 2.636e-4,0.0641 c 0.00132,0.0453 0.1479171,5.77958 0.2072421,8.09061 z" ></path>
  </symbol>
     
  <symbol xmlns="http://www.w3.org/2000/svg" viewBox="0 0 24 24" id="money">
    <path d="M17 3.5H7C4 3.5 2 5 2 8.5V15.5C2 19 4 20.5 7 20.5H17C20 20.5 22 19 22 15.5V8.5C22 5 20 3.5 17 3.5ZM6.25 14.5C6.25 14.91 5.91 15.25 5.5 15.25C5.09 15.25 4.75 14.91 4.75 14.5V9.5C4.75 9.09 5.09 8.75 5.5 8.75C5.91 8.75 6.25 9.09 6.25 9.5V14.5ZM12 15C10.34 15 9 13.66 9 12C9 10.34 10.34 9 12 9C13.66 9 15 10.34 15 12C15 13.66 13.66 15 12 15ZM19.25 14.5C19.25 14.91 18.91 15.25 18.5 15.25C18.09 15.25 17.75 14.91 17.75 14.5V9.5C17.75 9.09 18.09 8.75 18.5 8.75C18.91 8.75 19.25 9.09 19.25 9.5V14.5Z"></path>
  </symbol>
 
  <symbol role="img" xmlns="http://www.w3.org/2000/svg" viewBox="0 0 24 24" id="stackbit">    
    <path d="M21.314 13.477l-9.213 5.13-9.396-5.13a.729.729 0 0 0-.993.294.729.729 0 0 0 .294.993l9.746 5.333c.22.128.497.128.717 0l9.562-5.333a.727.727 0 0 0 .276-.993.718.718 0 0 0-.993-.294zM3.845 10.075l8.256-4.67 9.195 5.314a.749.749 0 0 0 1.011-.276.749.749 0 0 0-.276-1.012L12.47 3.915a.749.749 0 0 0-.735 0L1.988 9.43c-.497.276-.497.993 0 1.288l9.746 5.516a.748.748 0 0 0 1.011-.276.749.749 0 0 0-.276-1.011zM.057 13.937v-3.678A2.258 2.258 0 0 1 1.216 8.07l9.745-5.517a2.25 2.25 0 0 1 2.28.019l9.562 5.516a2.296 2.296 0 0 1 1.14 2.17v3.678a2.288 2.288 0 0 1-1.176 2.188l-9.562 5.332a2.281 2.281 0 0 1-2.225 0l-9.746-5.332c-.81-.442-1.232-1.306-1.177-2.188z">
    </path>
  </symbol> 

</svg>